<svg width="1022" height="727" viewBox="0 0 1022 727" fill="none" xmlns="http://www.w3.org/2000/svg">
<g clip-path="url(#clip0)">
<rect width="1022" height="727" fill="#349F52"/>
<path d="M445 172C445 116.57 422.98 63.4098 383.785 24.2147C344.59 -14.9804 291.43 -37 236 -37C180.57 -37 127.41 -14.9804 88.2147 24.2147C49.0196 63.4098 27 116.57 27 172L236 172H445Z" fill="white" fill-opacity="0.14"/>
<path d="M236.905 241.002C176.171 240.762 117.829 264.658 74.7139 307.434C31.5986 350.209 7.24187 408.361 7.0018 469.095C6.76172 529.829 30.658 588.171 73.4337 631.286C116.209 674.401 174.361 698.758 235.095 698.998L236 470L236.905 241.002Z" fill="white" fill-opacity="0.14"/>
<circle cx="401" cy="583" r="144" fill="white" fill-opacity="0.14"/>
<path d="M257 398C257 358.218 272.804 320.064 300.934 291.934C329.064 263.804 367.218 248 407 248C446.782 248 484.936 263.804 513.066 291.934C541.196 320.064 557 358.218 557 398L407 398H257Z" fill="white" fill-opacity="0.3"/>
<path d="M1047 491C1047 518.446 1041.59 545.624 1031.09 570.981C1020.59 596.338 1005.19 619.378 985.785 638.785C966.378 658.193 943.338 673.588 917.981 684.091C892.624 694.594 865.446 700 838 700C810.554 700 783.376 694.594 758.019 684.091C732.662 673.588 709.622 658.193 690.215 638.785C670.807 619.378 655.412 596.338 644.909 570.981C634.406 545.624 629 518.446 629 491L838 491H1047Z" fill="white" fill-opacity="0.3"/>
<path d="M569 470C569 446.887 573.552 424.001 582.397 402.648C591.242 381.294 604.206 361.892 620.549 345.549C636.892 329.206 656.294 316.242 677.648 307.397C699.001 298.552 721.887 294 745 294L745 470H569Z" fill="white" fill-opacity="0.14"/>
<circle cx="838" cy="398" r="50" fill="white" fill-opacity="0.3"/>
<circle cx="611" cy="17" r="145" fill="white" fill-opacity="0.14"/>
<path d="M1067 470C1067 459.232 1064.88 448.569 1060.76 438.62C1056.64 428.671 1050.6 419.632 1042.98 412.017C1035.37 404.403 1026.33 398.363 1016.38 394.242C1006.43 390.121 995.768 388 985 388C974.232 388 963.569 390.121 953.62 394.242C943.671 398.363 934.632 404.403 927.017 412.017C919.403 419.632 913.363 428.671 909.242 438.62C905.121 448.569 903 459.232 903 470L985 470H1067Z" fill="white" fill-opacity="0.3"/>
<path d="M1005 164C1005 189.712 997.376 214.846 983.091 236.224C968.806 257.603 948.503 274.265 924.749 284.104C900.994 293.944 874.856 296.518 849.638 291.502C824.421 286.486 801.257 274.105 783.076 255.924C764.895 237.743 752.514 214.579 747.498 189.362C742.482 164.144 745.056 138.006 754.896 114.251C764.735 90.4968 781.397 70.1935 802.776 55.9089C824.154 41.6244 849.288 34 875 34L875 164H1005Z" fill="white" fill-opacity="0.14"/>
</g>
<defs>
<clipPath id="clip0">
<rect width="1022" height="727" fill="white"/>
</clipPath>
</defs>
</svg>
